<svg width="80" height="40" viewBox="0 0 80 40" fill="none" xmlns="http://www.w3.org/2000/svg">
<g clip-path="url(#clip0_878_7)">
<path d="M0 40H13.6909V39.994C13.6909 34.8145 15.1874 29.9895 17.7718 25.9216C18.8115 24.2812 20.0316 22.761 21.3958 21.397H21.4018C26.1618 16.6321 32.7368 13.6939 39.997 13.6939C45.1837 13.6939 50.0158 15.196 54.0906 17.7798L63.9291 7.94352C57.2579 2.95629 48.976 0 39.997 0C28.9565 0 18.9618 4.47048 11.7256 11.705H11.7196C10.3553 13.075 9.09323 14.5351 7.9393 16.0793C2.95094 22.749 0 31.023 0 39.988V40Z" fill="#002A44"/>
<path d="M40.009 40H80V39.994C80 28.962 75.5345 18.9755 68.3044 11.735L67.8055 12.2337V12.1917L58.5981 21.397L40.003 39.988H39.9969L40.003 40.006L40.009 40Z" fill="#87CC25"/>
</g>
<defs>
<clipPath id="clip0_878_7">
<rect width="80" height="40" fill="white"/>
</clipPath>
</defs>
</svg>
